<svg xmlns="http://www.w3.org/2000/svg" viewBox="0 0 120 23.879" width="0" height="0" style="display:none">
  <symbol id="svg-berry-logo" xmlns="http://www.w3.org/2000/svg" viewBox="0 0 120 23.879">
    <g id="l" transform="translate(-28 -341)">
      <path id="Path_1" data-name="Path 1" fill="#050e0d" d="M35.988,346.354a4,4,0,0,1,1.058.475,2.424,2.424,0,0,1,.712.691,2.659,2.659,0,0,1,.41.82,3.138,3.138,0,0,1,.13.885,2.818,2.818,0,0,1-.345,1.4,3.765,3.765,0,0,1-.95,1.079,4.284,4.284,0,0,1-1.447.691,6,6,0,0,1-1.792.237h-4.75a1.2,1.2,0,0,1-.777-.194.8.8,0,0,1-.237-.626v-9.845a.789.789,0,0,1,.216-.626,1.219,1.219,0,0,1,.8-.216l4.448-.022a8.28,8.28,0,0,1,1.684.151,4.294,4.294,0,0,1,1.317.5,2.668,2.668,0,0,1,.885.885,2.4,2.4,0,0,1,.324,1.3,2.241,2.241,0,0,1-.453,1.36,2.83,2.83,0,0,1-1.231.928v.13Zm-6.153-.54h3.67a4.361,4.361,0,0,0,.712-.065,2.413,2.413,0,0,0,.756-.259,1.685,1.685,0,0,0,.583-.518,1.511,1.511,0,0,0,.237-.864,1.371,1.371,0,0,0-.561-1.123,2.6,2.6,0,0,0-1.555-.432H29.835Zm6.585,3.325a1.813,1.813,0,0,0-.734-1.511,3.363,3.363,0,0,0-2.137-.583H29.835v4.232h3.714a3.882,3.882,0,0,0,1.425-.216,2.688,2.688,0,0,0,.885-.54,1.606,1.606,0,0,0,.432-.691A2.048,2.048,0,0,0,36.42,349.14Zm13.321,3.433c-.043.065-.151.086-.3.086h-5.57a4.931,4.931,0,0,1-1.619-.238,2.686,2.686,0,0,1-1.036-.6,1.9,1.9,0,0,1-.54-.885,3.528,3.528,0,0,1-.151-1.079v-5.873A3.643,3.643,0,0,1,40.7,342.9a2.518,2.518,0,0,1,.583-.907,3.35,3.35,0,0,1,1.058-.626,4.707,4.707,0,0,1,1.555-.237h5.462c.151,0,.237.022.281.086a.46.46,0,0,1,.065.259v.691a.375.375,0,0,1-.065.259.445.445,0,0,1-.281.065H43.912a1.941,1.941,0,0,0-1.209.3,1.173,1.173,0,0,0-.367.95v2.137h6.369c.151,0,.237.022.281.086a.461.461,0,0,1,.065.259v.626a.347.347,0,0,1-.065.238c-.043.065-.151.086-.281.086H42.315v2.85a1.154,1.154,0,0,0,.367.885,1.82,1.82,0,0,0,1.231.345h5.549c.151,0,.259.022.3.086a.46.46,0,0,1,.065.259v.691C49.828,352.443,49.806,352.529,49.742,352.573Zm1.943-10.579a.789.789,0,0,1,.216-.626,1.219,1.219,0,0,1,.8-.216h4.577a6.073,6.073,0,0,1,1.727.237,4.324,4.324,0,0,1,1.339.669,2.974,2.974,0,0,1,.864,1.015,2.862,2.862,0,0,1,.3,1.3,2.636,2.636,0,0,1-.6,1.727,3.344,3.344,0,0,1-1.662,1.08v.065a2.368,2.368,0,0,1,1.187.626,3.08,3.08,0,0,1,.561,1.015l1.166,3.454a.3.3,0,0,1,0,.194c-.022.065-.108.108-.259.108H60.58a.949.949,0,0,1-.216-.043.247.247,0,0,1-.151-.173l-1.058-3.131a2.2,2.2,0,0,0-.41-.777,1.912,1.912,0,0,0-.6-.5,2.33,2.33,0,0,0-.777-.238,6.263,6.263,0,0,0-.928-.065h-2.85v4.664c0,.13-.022.194-.086.238-.043.043-.151.043-.3.043H52.073a.751.751,0,0,1-.281-.043c-.065-.043-.086-.108-.086-.238V341.993Zm7.967,2.461a1.932,1.932,0,0,0-.13-.669,1.587,1.587,0,0,0-.41-.6,2.043,2.043,0,0,0-.8-.453,4.069,4.069,0,0,0-1.252-.173H53.585v3.865h3.347a4.171,4.171,0,0,0,1.231-.151,2.212,2.212,0,0,0,.842-.432,1.728,1.728,0,0,0,.5-.626,1.819,1.819,0,0,0,.151-.756Zm4.145-2.461a.789.789,0,0,1,.216-.626,1.219,1.219,0,0,1,.8-.216h4.577a6.073,6.073,0,0,1,1.727.237,4.324,4.324,0,0,1,1.339.669,2.974,2.974,0,0,1,.864,1.015,2.862,2.862,0,0,1,.3,1.3,2.636,2.636,0,0,1-.6,1.727,3.344,3.344,0,0,1-1.662,1.08v.065a2.368,2.368,0,0,1,1.187.626,3.081,3.081,0,0,1,.561,1.015l1.166,3.454a.3.3,0,0,1,0,.194c-.022.065-.108.108-.259.108H72.692a.95.95,0,0,1-.216-.043.247.247,0,0,1-.151-.173l-1.058-3.131a2.2,2.2,0,0,0-.41-.777,1.911,1.911,0,0,0-.6-.5,2.33,2.33,0,0,0-.777-.238,6.263,6.263,0,0,0-.928-.065H65.7v4.664c0,.13-.022.194-.086.238-.043.043-.151.043-.3.043H64.186a.751.751,0,0,1-.281-.043c-.065-.043-.086-.108-.086-.238V341.993H63.8Zm7.988,2.461a1.932,1.932,0,0,0-.13-.669,1.587,1.587,0,0,0-.41-.6,2.043,2.043,0,0,0-.8-.453,4.069,4.069,0,0,0-1.252-.173H65.719v3.865h3.347a4.171,4.171,0,0,0,1.231-.151,2.212,2.212,0,0,0,.842-.432,1.728,1.728,0,0,0,.5-.626,2.243,2.243,0,0,0,.151-.756Zm8.809,3.606v4.34q0,.162-.065.194a.577.577,0,0,1-.238.043H79.126a.577.577,0,0,1-.237-.043.208.208,0,0,1-.086-.194v-4.34l-4.556-6.715a.1.1,0,0,1,0-.108c.022-.043.086-.065.173-.065h1.49a.578.578,0,0,1,.238.043.41.41,0,0,1,.151.173l1.814,2.828,1.555,2.526h.086l1.641-2.634,1.77-2.72a.423.423,0,0,1,.41-.216h1.382q.13,0,.13.065a.1.1,0,0,1,0,.108l-4.491,6.715Zm11.573,3.411a4.541,4.541,0,0,0,.5-.022,4.12,4.12,0,0,0,.691-.065c.259-.022.54-.065.82-.108a4.8,4.8,0,0,0,.8-.194v-3.692a2.39,2.39,0,0,0-.41-.043h-.41a8.378,8.378,0,0,0-1.447.13,7.077,7.077,0,0,0-1.468.41,1.5,1.5,0,0,1-.3.065.261.261,0,0,1-.194-.13l-.389-.734c-.086-.13-.043-.259.13-.367a5.7,5.7,0,0,1,1.555-.54,8.834,8.834,0,0,1,1.835-.194c.345,0,.626,0,.864.022.216.022.453.043.691.065a1.871,1.871,0,0,1,1.036.41,1.235,1.235,0,0,1,.281.907v4.124a.513.513,0,0,1-.324.5,6.452,6.452,0,0,1-1.187.453,9.075,9.075,0,0,1-1.252.237c-.41.065-.8.086-1.144.108-.367.022-.648.043-.885.043a8.168,8.168,0,0,1-2.5-.345,5.007,5.007,0,0,1-1.878-1.058,4.658,4.658,0,0,1-1.187-1.814,7.252,7.252,0,0,1-.41-2.591,6.88,6.88,0,0,1,.432-2.483,5.164,5.164,0,0,1,1.231-1.9,5.3,5.3,0,0,1,1.922-1.209,7.368,7.368,0,0,1,2.569-.432,14.342,14.342,0,0,1,1.835.13,8.1,8.1,0,0,1,2.03.54.367.367,0,0,1,.13.13c.022.065,0,.13-.065.238l-.432.82a.333.333,0,0,1-.151.151.319.319,0,0,1-.238-.022,6.8,6.8,0,0,0-1.49-.389,10.38,10.38,0,0,0-1.6-.13,4.759,4.759,0,0,0-2.008.389,4,4,0,0,0-1.339,1.015,3.918,3.918,0,0,0-.734,1.468,6.5,6.5,0,0,0-.237,1.706,7.482,7.482,0,0,0,.194,1.749,3.565,3.565,0,0,0,.691,1.4,3.16,3.16,0,0,0,1.317.928A6.272,6.272,0,0,0,92.167,351.471Zm6.866-9.478a.789.789,0,0,1,.216-.626,1.22,1.22,0,0,1,.8-.216h4.6a6.073,6.073,0,0,1,1.727.237,4.324,4.324,0,0,1,1.339.669,2.974,2.974,0,0,1,.864,1.015,2.862,2.862,0,0,1,.3,1.3,2.636,2.636,0,0,1-.6,1.727,3.345,3.345,0,0,1-1.662,1.08v.065a2.369,2.369,0,0,1,1.187.626,3.08,3.08,0,0,1,.561,1.015l1.166,3.454a.3.3,0,0,1,0,.194c-.022.065-.108.108-.259.108H107.95a.95.95,0,0,1-.216-.043.247.247,0,0,1-.151-.173l-1.058-3.131a2.2,2.2,0,0,0-.41-.777,1.912,1.912,0,0,0-.6-.5,2.33,2.33,0,0,0-.777-.238,6.263,6.263,0,0,0-.928-.065h-2.85v4.664c0,.13-.022.194-.086.238-.043.043-.151.043-.3.043H99.443a.751.751,0,0,1-.281-.043c-.065-.043-.086-.108-.086-.238V341.993Zm7.988,2.461a1.932,1.932,0,0,0-.13-.669,1.587,1.587,0,0,0-.41-.6,2.043,2.043,0,0,0-.8-.453,4.069,4.069,0,0,0-1.252-.173h-3.476v3.865H104.3a4.17,4.17,0,0,0,1.231-.151,2.213,2.213,0,0,0,.842-.432,1.729,1.729,0,0,0,.5-.626A2.243,2.243,0,0,0,107.021,344.454Zm15.632,2.418a5.345,5.345,0,0,1-6,5.959,5.888,5.888,0,0,1-4.426-1.533,6.108,6.108,0,0,1-1.468-4.383,6.59,6.59,0,0,1,.453-2.526,5.371,5.371,0,0,1,1.231-1.857,5.174,5.174,0,0,1,1.878-1.144,7.026,7.026,0,0,1,2.375-.389,7.417,7.417,0,0,1,2.591.41,4.78,4.78,0,0,1,1.878,1.166,4.845,4.845,0,0,1,1.123,1.835,7.767,7.767,0,0,1,.367,2.461Zm-1.878.065a8.838,8.838,0,0,0-.173-1.727,3.741,3.741,0,0,0-.626-1.468,3.182,3.182,0,0,0-1.231-1.015,4.494,4.494,0,0,0-2.008-.389,4.448,4.448,0,0,0-1.857.367,3.474,3.474,0,0,0-1.3.993,4.206,4.206,0,0,0-.756,1.447,5.708,5.708,0,0,0-.259,1.749,8.308,8.308,0,0,0,.194,1.857,3.985,3.985,0,0,0,.669,1.468,2.939,2.939,0,0,0,1.252.95,4.713,4.713,0,0,0,1.965.345,4.655,4.655,0,0,0,1.943-.367,3.5,3.5,0,0,0,1.274-1.015,3.807,3.807,0,0,0,.669-1.468,5.854,5.854,0,0,0,.238-1.727Zm4.059-5.484c0-.13.022-.194.086-.238a.468.468,0,0,1,.259-.043h1.209a.62.62,0,0,1,.259.043.306.306,0,0,1,.086.238v6.175a8.023,8.023,0,0,0,.151,1.727,2.47,2.47,0,0,0,.6,1.209,2.676,2.676,0,0,0,1.3.712,8.728,8.728,0,0,0,2.224.237c.216,0,.583-.022,1.058-.043s1.015-.086,1.6-.173v-9.867c0-.13.022-.194.086-.238.043-.043.13-.043.259-.043H135.2a.5.5,0,0,1,.238.043c.043.043.043.108.043.238v9.759a1.515,1.515,0,0,1-.3.95,1.959,1.959,0,0,1-1.166.5,12.169,12.169,0,0,1-1.6.151c-.561.022-1.036.043-1.468.043a13.294,13.294,0,0,1-2.828-.259,4.213,4.213,0,0,1-1.878-.864,3.438,3.438,0,0,1-1.036-1.6,8.1,8.1,0,0,1-.324-2.461Zm13.235.54a.789.789,0,0,1,.216-.626,1.193,1.193,0,0,1,.777-.216H143.7a6.185,6.185,0,0,1,1.727.237,4.483,4.483,0,0,1,1.36.691,3.253,3.253,0,0,1,.885,1.08,3.026,3.026,0,0,1,.324,1.382,4.28,4.28,0,0,1-.173,1.058,3.123,3.123,0,0,1-.669,1.144,3.869,3.869,0,0,1-1.36.928,5.5,5.5,0,0,1-2.224.367H139.86v4.34c0,.13-.022.194-.086.237-.043.043-.151.043-.3.043h-1.036a.75.75,0,0,1-.281-.043c-.065-.043-.086-.108-.086-.237V341.993Zm8.053,2.656a2.072,2.072,0,0,0-.13-.712,1.68,1.68,0,0,0-.453-.669,2.816,2.816,0,0,0-.885-.518,4.26,4.26,0,0,0-1.4-.216h-3.39v4.189h3.433a3.356,3.356,0,0,0,2.116-.54A1.837,1.837,0,0,0,146.122,344.649Z" transform="translate(0)"/>
      <path id="Path_2" data-name="Path 2" fill="#20120b" d="M468.6,405h23.706v1.792H468.6Z" transform="translate(-345.472 -50.182)"/>
      <path id="Path_3" data-name="Path 3" fill="#d14c44" d="M139.3,405h23.706v1.792H139.3Z" transform="translate(-87.27 -50.182)"/>
      <path id="Path_4" data-name="Path 4" fill="#f5cf45" d="M358.9,405h23.685v1.792H358.9Z" transform="translate(-259.457 -50.182)"/>
      <path id="Path_5" data-name="Path 5" fill="#cf69a5" d="M249.1,405h23.706v1.792H249.1Z" transform="translate(-173.363 -50.182)"/>
      <path id="Path_6" data-name="Path 6" fill="#050e0d" d="M29.5,405H53.206v1.792H29.5Zm23.814,5.937-.3.8-.734,1.857a.2.2,0,0,1-.086.13.252.252,0,0,1-.151.043h-.173a.312.312,0,0,1-.151-.043c-.043-.022-.065-.086-.086-.151l-.907-3.152c0-.022,0-.043.043-.043h.281c.043,0,.065.022.065.043l.626,2.31.194.712h.022l.259-.691.777-2.03c.022-.043.043-.065.065-.108s.086-.043.151-.043h.151a.252.252,0,0,1,.151.043.472.472,0,0,1,.065.108l.777,1.943.3.8h.022l.216-.8.6-2.245a.021.021,0,0,1,.022-.022h.324c.043,0,.043.022.043.043l-.907,3.152c-.022.065-.043.13-.086.151a.312.312,0,0,1-.151.043h-.151a.252.252,0,0,1-.151-.043.3.3,0,0,1-.086-.151l-.734-1.857-.3-.8Zm5.16,0-.3.8-.734,1.857a.2.2,0,0,1-.086.13.252.252,0,0,1-.151.043h-.173a.312.312,0,0,1-.151-.043c-.043-.022-.065-.086-.086-.151l-.907-3.152c0-.022,0-.043.043-.043h.281c.043,0,.065.022.065.043l.626,2.31.194.712h.022l.259-.691.777-2.03c.022-.043.043-.065.065-.108s.086-.043.151-.043h.151a.252.252,0,0,1,.151.043.473.473,0,0,1,.065.108l.756,1.943.3.8h.022l.216-.8.6-2.245a.021.021,0,0,1,.022-.022h.324c.043,0,.043.022.043.043l-.907,3.152c-.022.065-.043.13-.086.151a.312.312,0,0,1-.151.043h-.151a.252.252,0,0,1-.151-.043.3.3,0,0,1-.086-.151l-.734-1.857-.281-.8Zm5.16,0-.3.8-.734,1.857a.2.2,0,0,1-.086.13.252.252,0,0,1-.151.043H62.21a.312.312,0,0,1-.151-.043c-.043-.022-.065-.086-.086-.151l-.907-3.152c0-.022,0-.043.043-.043h.281c.043,0,.065.022.065.043l.626,2.31.194.712H62.3l.259-.691.777-2.03c.022-.043.043-.065.065-.108s.086-.043.151-.043H63.7a.252.252,0,0,1,.151.043.472.472,0,0,1,.065.108l.756,1.943.3.8h.022l.216-.8.6-2.245a.021.021,0,0,1,.022-.022h.324c.043,0,.043.022.043.043l-.907,3.152c-.022.065-.043.13-.086.151a.312.312,0,0,1-.151.043h-.151a.251.251,0,0,1-.151-.043.3.3,0,0,1-.086-.151l-.734-1.857-.3-.8Zm3.627,2.634a.21.21,0,0,1-.086.194.393.393,0,0,1-.237.086.435.435,0,0,1-.237-.065.21.21,0,0,1-.086-.194.264.264,0,0,1,.086-.194.453.453,0,0,1,.237-.086.325.325,0,0,1,.237.086A.266.266,0,0,1,67.262,413.571Zm1.166.194h-.345c-.022,0-.022-.022-.022-.043v-3.26c0-.022,0-.043.022-.043h.345a.075.075,0,0,1,.022.043v1.4h1.058a1.1,1.1,0,0,0,.475-.108.629.629,0,0,0,.3-.41l.324-.885c0-.043.043-.043.086-.043h.194a.057.057,0,0,1,.065.065l-.3.864a1.1,1.1,0,0,1-.194.389.538.538,0,0,1-.324.237V412a.758.758,0,0,1,.432.238,1.133,1.133,0,0,1,.216.389l.389,1.1v.043c0,.022-.022.022-.065.022h-.237c-.043,0-.086-.022-.086-.043l-.389-1.1a.667.667,0,0,0-.345-.41,1.177,1.177,0,0,0-.475-.108H68.406v1.619C68.428,413.744,68.428,413.744,68.428,413.766Zm6.3-.259c0,.065-.022.086-.086.108a4.024,4.024,0,0,1-.734.151c-.259.022-.5.043-.734.043a2.728,2.728,0,0,1-.8-.086,1.183,1.183,0,0,1-.5-.237.855.855,0,0,1-.259-.324,1.1,1.1,0,0,1-.065-.367,1.029,1.029,0,0,1,.108-.475,1.236,1.236,0,0,1,.324-.345,1.87,1.87,0,0,1,.518-.216,2.989,2.989,0,0,1,.648-.065h1.187v-.237a1.677,1.677,0,0,0-.043-.345.43.43,0,0,0-.173-.259,1.029,1.029,0,0,0-.345-.173,2.171,2.171,0,0,0-.583-.065,5.384,5.384,0,0,0-.54.043,4.314,4.314,0,0,0-.561.108c-.043.022-.086,0-.086-.043l-.043-.151c-.022-.043,0-.065.043-.065a2.116,2.116,0,0,1,.583-.13c.237-.022.453-.043.669-.043.972,0,1.447.345,1.447,1.015l.022,2.159Zm-.389-1.555H73.156a2.1,2.1,0,0,0-.345.022,2.874,2.874,0,0,0-.41.108,1.316,1.316,0,0,0-.345.259.713.713,0,0,0-.151.453.618.618,0,0,0,.108.367.824.824,0,0,0,.3.237,1.278,1.278,0,0,0,.41.108,3.039,3.039,0,0,0,.432.022h.216c.086,0,.194-.022.3-.022.108-.022.238-.022.345-.043a1.8,1.8,0,0,0,.324-.086Zm3.584-1.6a2.7,2.7,0,0,1,1.6.475,1.473,1.473,0,0,1,.561,1.252,1.682,1.682,0,0,1-.13.669,1.247,1.247,0,0,1-.41.54,1.991,1.991,0,0,1-.669.367,3.13,3.13,0,0,1-.95.151V415a.057.057,0,0,1-.065.065h-.237A.057.057,0,0,1,77.56,415v-1.187a3.983,3.983,0,0,1-.95-.151,1.991,1.991,0,0,1-.669-.367,1.386,1.386,0,0,1-.389-.54,1.76,1.76,0,0,1-.13-.669,1.538,1.538,0,0,1,.583-1.252,1.961,1.961,0,0,1,.669-.345,2.827,2.827,0,0,1,.885-.13v-1.209a.057.057,0,0,1,.065-.065h.237a.057.057,0,0,1,.065.065ZM75.79,412.1a1.5,1.5,0,0,0,.108.54,1.286,1.286,0,0,0,.3.453,1.887,1.887,0,0,0,.54.324,2.782,2.782,0,0,0,.82.151v-2.958a2.213,2.213,0,0,0-.8.13,1.559,1.559,0,0,0-.561.3,1.042,1.042,0,0,0-.324.475,2.365,2.365,0,0,0-.086.583Zm3.929,0a1.648,1.648,0,0,0-.108-.583,1.1,1.1,0,0,0-.324-.453,1.4,1.4,0,0,0-.561-.3,2.213,2.213,0,0,0-.8-.13v2.958a3.089,3.089,0,0,0,.842-.151,1.63,1.63,0,0,0,.54-.324,1.051,1.051,0,0,0,.3-.453A1.724,1.724,0,0,0,79.72,412.1Zm2.634-1.77a2.44,2.44,0,0,1,.756.108,1.222,1.222,0,0,1,.518.3,1.2,1.2,0,0,1,.3.475,1.649,1.649,0,0,1,.108.583.3.3,0,0,1-.108.259.49.49,0,0,1-.281.065H80.993a2.07,2.07,0,0,0,.108.669,1.286,1.286,0,0,0,.3.453,1.142,1.142,0,0,0,.453.237,2.347,2.347,0,0,0,.561.086,3.541,3.541,0,0,0,.5-.043,2.527,2.527,0,0,0,.432-.13c.022,0,.043-.022.065-.022s.022.022.043.043l.086.151c.022.043.022.065-.022.065a2.253,2.253,0,0,1-.54.173,5.29,5.29,0,0,1-.583.043,1.831,1.831,0,0,1-1.3-.41,1.714,1.714,0,0,1-.475-1.317,2.053,2.053,0,0,1,.13-.756,1.641,1.641,0,0,1,.345-.561,1.546,1.546,0,0,1,.54-.345,1.9,1.9,0,0,1,.712-.13Zm1.339,1.533a1.684,1.684,0,0,0-.065-.475,1.075,1.075,0,0,0-.216-.41A1.152,1.152,0,0,0,83,410.7a1.842,1.842,0,0,0-.648-.108,1.224,1.224,0,0,0-.95.345,1.447,1.447,0,0,0-.367.928Zm1.382,1.9h-.216c-.043,0-.086-.022-.086-.065v-3.239c0-.043.022-.065.086-.065h.216c.043,0,.086.022.086.065v1.36h2.461v-1.36c0-.043.022-.065.086-.065H87.9c.043,0,.086.022.086.065V413.7c0,.043-.022.065-.086.065h-.194c-.065,0-.086-.022-.086-.065v-1.6H85.16v1.6C85.16,413.744,85.117,413.766,85.074,413.766Zm6.823-.259c0,.065-.022.086-.086.108a4.027,4.027,0,0,1-.734.151c-.259.022-.5.043-.734.043a2.986,2.986,0,0,1-.82-.086,1.183,1.183,0,0,1-.5-.237.855.855,0,0,1-.259-.324,1.1,1.1,0,0,1-.065-.367,1.029,1.029,0,0,1,.108-.475,1.235,1.235,0,0,1,.324-.345,1.869,1.869,0,0,1,.518-.216,2.989,2.989,0,0,1,.648-.065h1.187v-.237a1.678,1.678,0,0,0-.043-.345.43.43,0,0,0-.173-.259,1.029,1.029,0,0,0-.345-.173,2.171,2.171,0,0,0-.583-.065,5.384,5.384,0,0,0-.54.043,4.309,4.309,0,0,0-.561.108c-.043.022-.086,0-.086-.043l-.043-.151c-.022-.043,0-.065.043-.065a2.118,2.118,0,0,1,.583-.13c.237-.022.453-.043.669-.043.972,0,1.447.345,1.447,1.015v2.159H91.9Zm-.367-1.555H90.342a2.1,2.1,0,0,0-.345.022,2.874,2.874,0,0,0-.41.108,1.317,1.317,0,0,0-.345.259.713.713,0,0,0-.151.453.618.618,0,0,0,.108.367.824.824,0,0,0,.3.237,1.279,1.279,0,0,0,.41.108,3.038,3.038,0,0,0,.432.022h.216c.086,0,.194-.022.3-.022.108-.022.237-.022.345-.043a1.8,1.8,0,0,0,.324-.086v-1.425Zm1.878-1.339c0-.151.086-.216.281-.216h2.094a.286.286,0,0,1,.216.065c.043.043.043.086.043.173v3.087c0,.022,0,.043-.022.043h-.345c-.022,0-.022-.022-.022-.043v-3.044H93.732l-.043.583c-.022.41-.065.777-.108,1.058a3.062,3.062,0,0,1-.173.734,1.132,1.132,0,0,1-.345.475,1.756,1.756,0,0,1-.6.3c-.022,0-.043.022-.065.022s-.022,0-.043-.043l-.065-.151c0-.022-.022-.043,0-.043,0-.022.022-.022.065-.043a1.239,1.239,0,0,0,.475-.259,1.152,1.152,0,0,0,.281-.41,3.331,3.331,0,0,0,.151-.626c.022-.237.065-.54.086-.885l.065-.777Zm5.268.95a1.941,1.941,0,0,1,.777.13,1.487,1.487,0,0,1,.453.281.917.917,0,0,1,.216.367.884.884,0,0,1-.043.756,1.113,1.113,0,0,1-.281.367,1.057,1.057,0,0,1-.432.237,1.61,1.61,0,0,1-.561.086H97.186a.287.287,0,0,1-.216-.065.2.2,0,0,1-.065-.151v-3.087a.057.057,0,0,1,.065-.065h.216c.065,0,.086.022.086.065v1.1h1.4Zm-1.4.259v1.662h1.447a1.284,1.284,0,0,0,.54-.086.821.821,0,0,0,.345-.237.762.762,0,0,0,.173-.281,1.294,1.294,0,0,0,.043-.259.762.762,0,0,0-.065-.3,1.015,1.015,0,0,0-.194-.259.744.744,0,0,0-.345-.173,1.63,1.63,0,0,0-.5-.065Zm3.347-1.36c0-.043.022-.065.086-.065h.237a.057.057,0,0,1,.065.065v.82a.9.9,0,0,0,.259.712,1.512,1.512,0,0,0,.972.238h.259c.086,0,.194-.022.3-.022a1.463,1.463,0,0,0,.3-.043c.108-.022.194-.043.281-.065v-1.641a.057.057,0,0,1,.065-.065h.216c.043,0,.086.022.086.065v3.26c0,.043-.022.065-.086.065h-.216c-.043,0-.086-.022-.086-.065v-1.339a3.335,3.335,0,0,1-.648.086,5.3,5.3,0,0,1-.54.022,2.357,2.357,0,0,1-.734-.086,1.224,1.224,0,0,1-.475-.237.777.777,0,0,1-.259-.389,1.306,1.306,0,0,1-.086-.518v-.8Zm6.866.367c-.065.065-.108.151-.173.216a1.883,1.883,0,0,0-.173.216c-.13.151-.259.324-.432.518s-.345.41-.54.626-.367.432-.54.648-.345.41-.475.583l-.108.108c-.022.022-.065.022-.13.022h-.086c-.13,0-.194-.065-.194-.173v-3.131c0-.043.022-.065.086-.065h.216c.043,0,.086.022.086.065v2.893h.043c.086-.086.151-.194.238-.281s.151-.194.237-.281c.108-.151.259-.3.41-.5s.324-.389.5-.6.345-.41.518-.626c.173-.194.324-.389.453-.54.043-.043.065-.086.108-.108.022-.022.065-.022.151-.022h.108a.312.312,0,0,1,.151.043.183.183,0,0,1,.043.13V413.7c0,.022,0,.043-.022.043h-.345a.075.075,0,0,1-.022-.043v-2.872Zm1.641,2.936h-.345c-.022,0-.022-.022-.022-.043v-3.26c0-.022,0-.043.022-.043h.345c.022,0,.022.022.022.043v1.4h1.058a1.1,1.1,0,0,0,.475-.108.629.629,0,0,0,.3-.41l.324-.885c0-.043.043-.043.086-.043h.194a.057.057,0,0,1,.065.065l-.3.864a1.1,1.1,0,0,1-.194.389.538.538,0,0,1-.324.237V412a.758.758,0,0,1,.432.238,1.132,1.132,0,0,1,.216.389l.389,1.1v.043c0,.022-.022.022-.065.022h-.216c-.043,0-.086-.022-.086-.043l-.389-1.1a.667.667,0,0,0-.345-.41,1.177,1.177,0,0,0-.475-.108h-1.166v1.619c.022,0,0,0,0,.022Zm6.3-.259c0,.065-.022.086-.086.108a4.028,4.028,0,0,1-.734.151c-.259.022-.5.043-.734.043a2.986,2.986,0,0,1-.82-.086,1.183,1.183,0,0,1-.5-.237.855.855,0,0,1-.259-.324,1.1,1.1,0,0,1-.065-.367,1.029,1.029,0,0,1,.108-.475,1.236,1.236,0,0,1,.324-.345,1.869,1.869,0,0,1,.518-.216,2.989,2.989,0,0,1,.648-.065h1.187v-.237a1.678,1.678,0,0,0-.043-.345.43.43,0,0,0-.173-.259,1.029,1.029,0,0,0-.345-.173,2.171,2.171,0,0,0-.583-.065,5.384,5.384,0,0,0-.54.043,4.309,4.309,0,0,0-.561.108c-.043.022-.086,0-.086-.043l-.043-.151c-.022-.043,0-.065.043-.065a2.118,2.118,0,0,1,.583-.13c.238-.022.453-.043.669-.043.972,0,1.447.345,1.447,1.015v2.159h.043Zm-.367-1.555h-1.187a2.1,2.1,0,0,0-.345.022,2.874,2.874,0,0,0-.41.108,1.317,1.317,0,0,0-.345.259.713.713,0,0,0-.151.453.618.618,0,0,0,.108.367.824.824,0,0,0,.3.237,1.279,1.279,0,0,0,.41.108,3.039,3.039,0,0,0,.432.022h.216c.086,0,.194-.022.3-.022.108-.022.237-.022.345-.043a1.8,1.8,0,0,0,.324-.086Zm1.835,1.619a.21.21,0,0,1-.086.194.393.393,0,0,1-.237.086.435.435,0,0,1-.237-.065.21.21,0,0,1-.086-.194.264.264,0,0,1,.086-.194.453.453,0,0,1,.237-.086.325.325,0,0,1,.237.086A.267.267,0,0,1,116.9,413.571Zm4.145-1.511a2.465,2.465,0,0,1-.108.712,1.326,1.326,0,0,1-.324.561,1.688,1.688,0,0,1-.561.367,2.213,2.213,0,0,1-.8.13,5.312,5.312,0,0,1-.561-.043,3.027,3.027,0,0,1-.6-.129V415c0,.043-.022.043-.065.043h-.237c-.043,0-.065-.022-.065-.043v-4.4c0-.043.022-.065.065-.086a4.107,4.107,0,0,1,.777-.173c.259-.022.518-.043.777-.043a1.707,1.707,0,0,1,1.317.453,2.317,2.317,0,0,1,.389,1.317Zm-.389,0a2.249,2.249,0,0,0-.108-.712.989.989,0,0,0-.3-.453,1.142,1.142,0,0,0-.453-.237,2.353,2.353,0,0,0-.561-.065c-.151,0-.345.022-.561.043a2.491,2.491,0,0,0-.6.13V413.4a3.2,3.2,0,0,0,.669.151,4.009,4.009,0,0,0,.475.022,1.654,1.654,0,0,0,.583-.086,1.233,1.233,0,0,0,.453-.281,1.494,1.494,0,0,0,.3-.475,1.973,1.973,0,0,0,.108-.669Zm3.433-1.706a2.7,2.7,0,0,1,1.6.475,1.473,1.473,0,0,1,.561,1.252,1.682,1.682,0,0,1-.13.669,1.247,1.247,0,0,1-.41.54,1.991,1.991,0,0,1-.669.367,3.13,3.13,0,0,1-.95.151V415a.057.057,0,0,1-.065.065h-.238a.057.057,0,0,1-.065-.065v-1.187a3.981,3.981,0,0,1-.95-.151,1.991,1.991,0,0,1-.669-.367,1.386,1.386,0,0,1-.389-.54,1.759,1.759,0,0,1-.13-.669,1.538,1.538,0,0,1,.583-1.252,1.961,1.961,0,0,1,.669-.345,2.827,2.827,0,0,1,.885-.13v-1.209a.057.057,0,0,1,.065-.065h.238a.057.057,0,0,1,.065.065v1.209Zm-2.137,1.749a1.5,1.5,0,0,0,.108.54,1.286,1.286,0,0,0,.3.453,1.888,1.888,0,0,0,.54.324,2.782,2.782,0,0,0,.82.151v-2.958a2.213,2.213,0,0,0-.8.13,1.559,1.559,0,0,0-.561.3,1.042,1.042,0,0,0-.324.475,1.654,1.654,0,0,0-.086.583Zm3.929,0a1.648,1.648,0,0,0-.108-.583,1.1,1.1,0,0,0-.324-.453,1.4,1.4,0,0,0-.561-.3,2.213,2.213,0,0,0-.8-.13v2.958a3.089,3.089,0,0,0,.842-.151,1.63,1.63,0,0,0,.54-.324,1.051,1.051,0,0,0,.3-.453,1.724,1.724,0,0,0,.108-.561Z" transform="translate(-1.176 -50.182)"/>
    </g>
  </symbol>
  <symbol id="svg-cart-icon" xmlns="http://www.w3.org/2000/svg" viewBox="0 0 24 23">
    <circle id="Ellipse_10" data-name="Ellipse 10" fill="none" stroke="#000" stroke-linecap="round" stroke-linejoin="round" stroke-width="2px" cx="1" cy="1" r="1" transform="translate(8 20)"/>
    <circle id="Ellipse_11" data-name="Ellipse 11" fill="none" stroke="#000" stroke-linecap="round" stroke-linejoin="round" stroke-width="2px" cx="1" cy="1" r="1" transform="translate(19 20)"/>
    <path id="Path_20" data-name="Path 20" fill="none" stroke="#000" stroke-linecap="round" stroke-linejoin="round" stroke-width="2px" d="M1,1H5L7.68,14.39a2,2,0,0,0,2,1.61H19.4a2,2,0,0,0,2-1.61L23,6H6"/>
  </symbol>
  <symbol id="svg-menu-icon" xmlns="http://www.w3.org/2000/svg" viewBox="0 0 20 14">
    <g id="menu" transform="translate(-2 -5)">
      <line id="Line_9" data-name="Line 9" fill="none" stroke="#000" stroke-linecap="round" stroke-linejoin="round" stroke-width="2px" x2="18" transform="translate(3 12)"/>
      <line id="Line_10" data-name="Line 10" fill="none" stroke="#000" stroke-linecap="round" stroke-linejoin="round" stroke-width="2px" x2="18" transform="translate(3 6)"/>
      <line id="Line_11" data-name="Line 11" fill="none" stroke="#000" stroke-linecap="round" stroke-linejoin="round" stroke-width="2px" x2="18" transform="translate(3 18)"/>
    </g>
  </symbol>
  <symbol id="svg-user-icon" xmlns="http://www.w3.org/2000/svg" viewBox="0 0 50 50">
    <g id="Group_57" data-name="Group 57" transform="translate(-15 -27)">
      <circle id="Ellipse_2" data-name="Ellipse 2" cx="25" cy="25" r="25" transform="translate(15 27)"/>
      <g id="user" transform="translate(28 40)">
        <path id="Path_11" data-name="Path 11" fill="none" stroke="#fff" stroke-linecap="round" stroke-linejoin="round" stroke-width="2px" d="M20,21V19a4,4,0,0,0-4-4H8a4,4,0,0,0-4,4v2"/>
        <circle id="Ellipse_4" data-name="Ellipse 4" fill="none" stroke="#fff" stroke-linecap="round" stroke-linejoin="round" stroke-width="2px" cx="4" cy="4" r="4" transform="translate(8 3)"/>
      </g>
    </g>
  </symbol>
  <symbol id="svg-item-cart-icon" xmlns="http://www.w3.org/2000/svg" viewBox="0 0 17 16.318">
    <g id="Group_35" data-name="Group 35" transform="translate(-16 -90)">
      <circle id="Ellipse_6" data-name="Ellipse 6" fill="none" stroke-linecap="round" stroke-linejoin="round" stroke-width="2px" cx="0.682" cy="0.682" r="0.682" transform="translate(21.773 103.955)"/>
      <circle id="Ellipse_7" data-name="Ellipse 7" fill="none" stroke-linecap="round" stroke-linejoin="round" stroke-width="2px" cx="0.682" cy="0.682" r="0.682" transform="translate(29.273 103.955)"/>
      <path id="Path_12" data-name="Path 12" fill="none" stroke-linecap="round" stroke-linejoin="round" stroke-width="2px" d="M1,1H3.727l1.827,9.13a1.364,1.364,0,0,0,1.364,1.1h6.627a1.364,1.364,0,0,0,1.364-1.1L16,4.409H4.409" transform="translate(16 90)"/>
    </g>
  </symbol>
  <symbol id="svg-item-food-icon" xmlns="http://www.w3.org/2000/svg" viewBox="0 0 16.576 16.576">
    <g id="Group_37" data-name="Group 37" transform="translate(-16.026 -215.993)">
      <path id="Path_17" data-name="Path 17" stroke-width="0.2px" d="M4.634-.071a.69.69,0,0,0-.606.606l-.279,3.23a.967.967,0,0,1-.849.849H2.893L3.24.6a.455.455,0,0,0-.51-.51A.69.69,0,0,0,2.124.7L1.777,4.711H1.77A.637.637,0,0,1,1.057,4L1.336.768a.455.455,0,0,0-.51-.51A.69.69,0,0,0,.22.864l-.279,3.23A1.547,1.547,0,0,0,1.674,5.828h.007L1.534,7.533A1.8,1.8,0,0,0,.507,8.958l-.554,6.413A1.183,1.183,0,0,0,1.278,16.7l.037,0A1.8,1.8,0,0,0,2.89,15.117L3.444,8.7a1.177,1.177,0,0,0-.795-1.267L2.8,5.731H2.8A2.348,2.348,0,0,0,4.865,3.669L5.144.439A.455.455,0,0,0,4.634-.071ZM1.775,15.214a.42.42,0,0,1-.364.364l-.037,0a.276.276,0,0,1-.306-.306l.554-6.413A.42.42,0,0,1,1.986,8.5l.037,0a.276.276,0,0,1,.306.306Z" transform="translate(16.372 220.31) rotate(-45)"/>
      <path id="Path_18" data-name="Path 18" stroke-width="0.2px" d="M2.572.044A2.087,2.087,0,0,0,.606,1.336a4.437,4.437,0,0,0-.54,2.377l.08.921A2.66,2.66,0,0,0,2.48,6.968l.137.012.09,1.041a1.176,1.176,0,0,0-.795,1.267L2.467,15.7a1.8,1.8,0,0,0,1.576,1.576l.036,0A1.183,1.183,0,0,0,5.4,15.956L4.85,9.543A1.8,1.8,0,0,0,3.823,8.118l-.09-1.041.137.012A1.753,1.753,0,0,0,5.834,5.126L5.755,4.2A5.873,5.873,0,0,0,4.793,1.7,3.239,3.239,0,0,0,2.572.044ZM4.288,15.859a.276.276,0,0,1-.306.306l-.036,0a.42.42,0,0,1-.364-.364L3.029,9.385a.276.276,0,0,1,.306-.306l.036,0a.42.42,0,0,1,.364.364Zm.429-10.83a.843.843,0,0,1-.944.944l-1.39-.12A1.279,1.279,0,0,1,1.262,4.73l-.08-.921c-.1-1.1.686-2.718,1.487-2.649S4.544,3,4.639,4.107Z" transform="translate(28.355 216.072) rotate(45)"/>
    </g>
  </symbol>
  <symbol id="svg-item-card-icon" xmlns="http://www.w3.org/2000/svg" viewBox="0 0 16 12.182">
    <g id="Group_39" data-name="Group 39" transform="translate(-16 -265.5)">
      <rect id="Rectangle_22" data-name="Rectangle 22" fill="none" stroke-linecap="round" stroke-linejoin="round" stroke-width="2px" width="14" height="10.182" rx="2" transform="translate(17 266.5)"/>
      <line id="Line_2" data-name="Line 2" fill="none" stroke-linecap="round" stroke-linejoin="round" stroke-width="2px" x2="14" transform="translate(17 270.818)"/>
    </g>
  </symbol>
  <symbol id="svg-item-phone-icon" xmlns="http://www.w3.org/2000/svg" viewBox="0 0 17.001 17.031">
    <path id="phone" fill="none" stroke-linecap="round" stroke-linejoin="round" stroke-width="2px" d="M17.111,13.253v2.263a1.508,1.508,0,0,1-1.644,1.508,14.926,14.926,0,0,1-6.509-2.315,14.707,14.707,0,0,1-4.525-4.525A14.926,14.926,0,0,1,2.118,3.644,1.508,1.508,0,0,1,3.619,2H5.881A1.508,1.508,0,0,1,7.39,3.3a9.684,9.684,0,0,0,.528,2.119,1.508,1.508,0,0,1-.339,1.591l-.958.958a12.067,12.067,0,0,0,4.525,4.525l.958-.958a1.508,1.508,0,0,1,1.591-.339,9.684,9.684,0,0,0,2.119.528A1.508,1.508,0,0,1,17.111,13.253Z" transform="translate(-1.112 -1)"/>
  </symbol>
  <symbol id="svg-item-cog-icon" xmlns="http://www.w3.org/2000/svg" viewBox="0 0 18 18">
    <g id="Group_41" data-name="Group 41" transform="translate(-15 -360)">
      <circle id="Ellipse_3" data-name="Ellipse 3" fill="none" stroke-linecap="round" stroke-linejoin="round" stroke-width="2px" cx="2.182" cy="2.182" r="2.182" transform="translate(21.818 366.818)"/>
      <path id="Path_10" data-name="Path 10" fill="none" stroke-linecap="round" stroke-linejoin="round" stroke-width="2px" d="M14.382,11.182a1.2,1.2,0,0,0,.24,1.324l.044.044a1.455,1.455,0,1,1-2.058,2.058l-.044-.044a1.21,1.21,0,0,0-2.051.858v.124a1.455,1.455,0,1,1-2.909,0V15.48a1.2,1.2,0,0,0-.785-1.1,1.2,1.2,0,0,0-1.324.24l-.044.044a1.455,1.455,0,1,1-2.058-2.058l.044-.044a1.21,1.21,0,0,0-.858-2.051H2.455a1.455,1.455,0,1,1,0-2.909H2.52a1.2,1.2,0,0,0,1.1-.785,1.2,1.2,0,0,0-.24-1.324l-.044-.044A1.455,1.455,0,1,1,5.393,3.393l.044.044a1.2,1.2,0,0,0,1.324.24h.058a1.2,1.2,0,0,0,.727-1.1V2.455a1.455,1.455,0,1,1,2.909,0V2.52a1.21,1.21,0,0,0,2.051.858l.044-.044a1.455,1.455,0,1,1,2.058,2.058l-.044.044a1.2,1.2,0,0,0-.24,1.324v.058a1.2,1.2,0,0,0,1.1.727h.124a1.455,1.455,0,1,1,0,2.909H15.48A1.2,1.2,0,0,0,14.382,11.182Z" transform="translate(15 360)"/>
    </g>
  </symbol>
  <symbol id="svg-arrow-left" xmlns="http://www.w3.org/2000/svg" viewBox="0 0 16 16">
    <g id="arrow-left" transform="translate(-4 -4)">
      <line id="Line_3" data-name="Line 3" fill="none" stroke-linecap="round" stroke-linejoin="round" stroke-width="2px" x1="14" transform="translate(5 12)"/>
      <path id="Path_19" data-name="Path 19" fill="none" stroke-linecap="round" stroke-linejoin="round" stroke-width="2px" d="M12,19,5,12l7-7"/>
    </g>
  </symbol>
  <symbol id="svg-info" xmlns="http://www.w3.org/2000/svg" viewBox="0 0 22 22">
    <g id="info" transform="translate(-1 -1)">
      <circle id="Ellipse_9" data-name="Ellipse 9" fill="none" stroke-linecap="round" stroke-linejoin="round" stroke-width="2px" stroke="#fff" cx="10" cy="10" r="10" transform="translate(2 2)"/>
      <line id="Line_6" data-name="Line 6" fill="none" stroke-linecap="round" stroke-linejoin="round" stroke-width="2px" stroke="#fff" y1="4" transform="translate(12 12)"/>
      <line id="Line_8" data-name="Line 8" fill="none" stroke-linecap="round" stroke-linejoin="round" stroke-width="2px" stroke="#fff" y1="1" transform="translate(12 7)"/>
      <line id="Line_7" data-name="Line 7" fill="none" stroke-linecap="round" stroke-linejoin="round" stroke-width="2px" stroke="#000" transform="translate(12 8)"/>
    </g>
  </symbol>
  <symbol id="svg-star-icon" xmlns="http://www.w3.org/2000/svg" viewBox="0 0 14 13.412">
    <path stroke="#fd8600" stroke-linecap="round" stroke-linejoin="round" stroke-width="2px" d="M8,2,9.854,5.756,14,6.362,11,9.284l.708,4.128L8,11.462l-3.708,1.95L5,9.284,2,6.362l4.146-.606Z" transform="translate(-1 -1)"/>
  </symbol>
  <symbol id="svg-plus-icon" xmlns="http://www.w3.org/2000/svg" viewBox="0 0 16 16">
    <g id="plus" transform="translate(-4 -4)">
      <line id="Line_14" data-name="Line 14" stroke="#454442" stroke-linecap="round" stroke-linejoin="round" stroke-width="2px" y2="14" transform="translate(12 5)"/>
      <line id="Line_15" data-name="Line 15" stroke="#454442" stroke-linecap="round" stroke-linejoin="round" stroke-width="2px" x2="14" transform="translate(5 12)"/>
    </g>
  </symbol>
  <symbol id="svg-minus-icon" xmlns="http://www.w3.org/2000/svg" viewBox="0 0 16 16">
    <g id="plus" transform="translate(-4 -4)">
      <line id="Line_15" data-name="Line 15" stroke="#454442" stroke-linecap="round" stroke-linejoin="round" stroke-width="2px" x2="14" transform="translate(5 12)"/>
    </g>
  </symbol>
</svg>
